<svg width="245" height="245" viewBox="0 0 245 245" fill="none" xmlns="http://www.w3.org/2000/svg">
<path d="M239.432 122.5C236.091 122.5 233.864 124.727 233.864 128.068V194.886C233.864 197.67 232.75 200.454 230.523 202.682C228.296 204.909 225.511 206.023 222.727 206.023H22.2725C16.1475 206.023 11.136 201.011 11.136 194.886V77.9545H217.159C220.5 77.9545 222.727 75.727 222.727 72.3865C222.727 69.0455 220.499 66.8185 217.159 66.8185H5.56801C2.22749 66.818 0 69.0455 0 72.3865V194.886C0 207.136 10.0225 217.159 22.2725 217.159H222.727C228.852 217.159 234.42 214.932 238.318 210.477C242.773 206.023 245 200.455 245 194.886V128.068C245 124.727 242.773 122.5 239.432 122.5Z" fill="#C2C8D1"/>
<path d="M66.818 172.614H27.841C24.5 172.614 22.2729 174.841 22.2729 178.182C22.2729 181.522 24.5 183.75 27.841 183.75H66.8184C70.1594 183.75 72.3865 181.523 72.3865 178.182C72.3865 174.841 70.159 172.614 66.818 172.614Z" fill="#C2C8D1"/>
<path d="M111.363 172.614H89.091C85.75 172.614 83.5229 174.841 83.5229 178.182C83.5229 181.522 85.75 183.75 89.091 183.75H111.363C114.704 183.75 116.931 181.523 116.931 178.182C116.931 174.841 114.704 172.614 111.363 172.614Z" fill="#C2C8D1"/>
<path d="M217.159 172.614H194.886C191.545 172.614 189.318 174.841 189.318 178.182C189.318 181.522 191.545 183.75 194.886 183.75H217.159C220.5 183.75 222.727 181.523 222.727 178.182C222.727 174.841 220.5 172.614 217.159 172.614Z" fill="#C2C8D1"/>
<path d="M222.727 27.841H22.2725C10.0225 27.841 0 37.8635 0 50.1135C0 53.4545 2.22749 55.6815 5.56801 55.6815C8.90852 55.6815 11.136 53.454 11.136 50.1135C11.136 43.9885 16.1475 38.977 22.2725 38.977H222.727C228.852 38.977 233.863 43.9885 233.863 50.1135V100.227H27.841C24.5 100.227 22.273 102.454 22.273 105.795C22.273 109.136 24.5005 111.363 27.841 111.363H239.432C242.773 111.363 245 109.136 245 105.795V50.1135C245 37.8635 234.977 27.841 222.727 27.841Z" fill="#C2C8D1"/>
</svg>
