<svg width="36" height="36" viewBox="0 0 36 36" fill="none" xmlns="http://www.w3.org/2000/svg">
<path d="M33.7495 3.84982H2.24953C2.07274 3.84982 1.9281 3.99447 1.9281 4.17125V6.74268C1.9281 6.91947 2.07274 7.06411 2.24953 7.06411H33.7495C33.9263 7.06411 34.071 6.91947 34.071 6.74268V4.17125C34.071 3.99447 33.9263 3.84982 33.7495 3.84982ZM33.7495 28.9213H2.24953C2.07274 28.9213 1.9281 29.0659 1.9281 29.2427V31.8141C1.9281 31.9909 2.07274 32.1355 2.24953 32.1355H33.7495C33.9263 32.1355 34.071 31.9909 34.071 31.8141V29.2427C34.071 29.0659 33.9263 28.9213 33.7495 28.9213ZM33.7495 16.3855H2.24953C2.07274 16.3855 1.9281 16.5302 1.9281 16.707V19.2784C1.9281 19.4552 2.07274 19.5998 2.24953 19.5998H33.7495C33.9263 19.5998 34.071 19.4552 34.071 19.2784V16.707C34.071 16.5302 33.9263 16.3855 33.7495 16.3855Z" fill="white"/>
</svg>
