<svg width="25" height="25" viewBox="0 0 25 25" fill="none" xmlns="http://www.w3.org/2000/svg">
<path d="M13.9449 12.4987L21.2692 3.76825C21.3919 3.62316 21.2887 3.40274 21.099 3.40274H18.8724C18.7413 3.40274 18.6157 3.46133 18.5292 3.56178L12.4885 10.7632L6.44773 3.56178C6.36403 3.46133 6.23847 3.40274 6.10454 3.40274H3.87798C3.68825 3.40274 3.58501 3.62316 3.70778 3.76825L11.032 12.4987L3.70778 21.2292C3.68028 21.2615 3.66263 21.3011 3.65694 21.3432C3.65125 21.3852 3.65775 21.428 3.67567 21.4665C3.69359 21.505 3.72218 21.5375 3.75804 21.5603C3.7939 21.583 3.83553 21.5949 3.87798 21.5947H6.10454C6.23568 21.5947 6.36124 21.5361 6.44773 21.4357L12.4885 14.2342L18.5292 21.4357C18.6129 21.5361 18.7385 21.5947 18.8724 21.5947H21.099C21.2887 21.5947 21.3919 21.3743 21.2692 21.2292L13.9449 12.4987Z" fill="white"/>
</svg>
