<svg width="21" height="21" viewBox="0 0 21 21" fill="none" xmlns="http://www.w3.org/2000/svg">
<g clip-path="url(#clip0_31_45)">
<path d="M13.3121 19.3125H7.68713C7.58401 19.3125 7.49963 19.3969 7.49963 19.5V20.25C7.49963 20.6648 7.83479 21 8.24963 21H12.7496C13.1645 21 13.4996 20.6648 13.4996 20.25V19.5C13.4996 19.3969 13.4153 19.3125 13.3121 19.3125ZM10.4996 0C6.2551 0 2.81213 3.44297 2.81213 7.6875C2.81213 10.5328 4.35901 13.0172 6.65588 14.3461V17.0625C6.65588 17.4773 6.99104 17.8125 7.40588 17.8125H13.5934C14.0082 17.8125 14.3434 17.4773 14.3434 17.0625V14.3461C16.6403 13.0172 18.1871 10.5328 18.1871 7.6875C18.1871 3.44297 14.7442 0 10.4996 0ZM13.4973 12.8859L12.6559 13.3734V16.125H8.34338V13.3734L7.50198 12.8859C5.65745 11.8195 4.49963 9.85547 4.49963 7.6875C4.49963 4.37344 7.18557 1.6875 10.4996 1.6875C13.8137 1.6875 16.4996 4.37344 16.4996 7.6875C16.4996 9.85547 15.3418 11.8195 13.4973 12.8859Z" fill="#393D45"/>
</g>
<defs>
<clipPath id="clip0_31_45">
<rect width="21" height="21" fill="white"/>
</clipPath>
</defs>
</svg>
